<svg xmlns="http://www.w3.org/2000/svg" viewBox="0 0 2224 258.95"><defs><style>.cls-1{fill:#bc0017;}</style></defs><g id="Capa_2" data-name="Capa 2"><g id="Capa_1-2" data-name="Capa 1"><circle class="cls-1" cx="112.46" cy="95.36" r="15.47" transform="translate(-34.95 98.58) rotate(-41.55)"/><path class="cls-1" d="M17.76,180.67q3-.3,6.09-.3a62.54,62.54,0,0,1,14.77,1.76L80,134.26l-11.37-6.57A3,3,0,0,1,67,124.14a68.92,68.92,0,0,1,2.46-10.62,44.68,44.68,0,0,0-26.3,8.37c2-19.78,18.26-33.43,38.29-35.48,14.23-23.72,37.38-43.87,63.84-51.62a3,3,0,0,1,3.93,2.27c6.52,26.8.64,56.92-13.42,81.26,9,18.83,4.55,39.28-11.59,50.9a44.68,44.68,0,0,0-5.89-27,40.89,40.89,0,0,1-7.35,7.28c-1.07,1-2.31,1.28-3.09.83l-13-7.49L73.43,204.81a62.28,62.28,0,0,1,8.35,14.56,35.88,35.88,0,0,1,30.58,24.71,23.89,23.89,0,0,1,28,10.88H228l-32.74-67a44.43,44.43,0,0,0-12.47-17.15,95.32,95.32,0,0,0,32.93-31.38A79.81,79.81,0,0,0,228,95.62q-.08-41.4-23.41-66.53T135.62,4H0V159.74A23.9,23.9,0,0,1,17.76,180.67Z"/><path class="cls-1" d="M474.89,30.58Q441.67,0,376.69,0t-98.2,30.58q-33.12,30.6-33.12,99.16,0,67.88,33.12,98.46t98.2,30.58q65.08.08,98.2-30.58T508,129.74Q508.1,61.16,474.89,30.58ZM411.56,174.22h0q-10.71,13.65-34.85,13.65-24.56,0-35.27-13.45T330.71,129.8q0-32,10.71-45.29t35.27-13.25q24.56-.09,35.07,13.25t10.51,45.29Q422.27,160.6,411.56,174.22Z"/><path class="cls-1" d="M1955.62,30.76Q1922.41.18,1857.42.18t-98.19,30.58q-33.12,30.6-33.12,99.16,0,67.88,33.12,98.45T1857.42,259q65.08.09,98.2-30.58t33.12-98.45Q1988.84,61.34,1955.62,30.76ZM1892.3,174.4h0q-10.72,13.65-34.86,13.65-24.56,0-35.26-13.45T1811.45,130q0-32,10.71-45.29t35.26-13.25q24.55-.1,35.07,13.25T1903,130Q1903,160.77,1892.3,174.4Z"/><path class="cls-1" d="M563.62,225.81q-37.08-32.92-37.08-95.66,0-63.9,36.43-97T670.7,0a233.87,233.87,0,0,1,41.35,3.3,205,205,0,0,1,36.62,10.32V86.5a175.89,175.89,0,0,0-72.09-15.58q-32.34,0-48.51,14T611.9,130.23q0,30.39,16.56,44t48.89,13.65a171.57,171.57,0,0,0,71.12-15.21V246a190.27,190.27,0,0,1-35.65,9.75,252.34,252.34,0,0,1-41.36,3.11q-70.82-.07-107.84-33Z"/><polygon class="cls-1" points="766.95 3.96 850.71 3.96 850.71 83.45 922.38 3.96 1017.16 3.96 924.04 107.61 1017.16 254.9 929.04 254.9 872.55 160.58 850.73 185.9 850.73 254.82 766.95 254.82 766.95 3.96"/><polygon class="cls-1" points="1034.9 3.96 1230.12 3.96 1230.12 65.91 1118.67 65.91 1118.67 97.84 1215.69 97.84 1215.69 161.37 1118.67 161.37 1118.67 192.87 1230.1 192.87 1230.1 254.82 1034.9 254.82 1034.9 3.96"/><polygon class="cls-1" points="1315.38 65.14 1248.43 65.14 1248.43 3.96 1466.56 3.96 1466.56 65.14 1399.14 65.14 1399.14 254.9 1315.38 254.9 1315.38 65.14"/><path class="cls-1" d="M1707.37,146.56q-8.37-11.7-25.13-19.1a53.16,53.16,0,0,0,18.32-21.23,72.08,72.08,0,0,0,6.61-32.13q0-33.52-20.65-51.83T1627.68,4H1484.29V254.88H1630q40.53,0,63.13-19.87t22.61-55.33Q1715.74,158.26,1707.37,146.56ZM1563.78,61.61H1604q23.74,0,23.73,20.28t-22.6,20.27l-41.3,0Zm60.77,130.75q-5.85,5.25-17.92,5.26l-42.85,0V155.54h42.12q24.55,0,24.56,20.26Q1630.4,187.1,1624.55,192.36Z"/><polygon class="cls-1" points="2072.81 65.14 2005.87 65.14 2005.87 3.96 2224 3.96 2224 65.14 2156.6 65.14 2156.6 254.9 2072.83 254.9 2072.81 65.14"/></g></g></svg>